<svg width="128" height="128" viewBox="0 0 128 128" fill="none" xmlns="http://www.w3.org/2000/svg">
<path fill-rule="evenodd" clip-rule="evenodd" d="M16.934 1.71899C15.807 1.80699 14.7 1.79299 13.609 2.09199C11.222 2.74699 9.101 3.79399 7.23 5.40799C6.13 6.35599 5.17 7.37799 4.355 8.58199C3.097 10.441 2.24 12.439 1.81 14.688C1.982 14.989 2.163 15.305 2.355 15.626C3.574 17.664 4.794 19.688 6.016 21.724L9.228 27.065C10.216 28.711 11.202 30.358 12.188 32.004L16.796 39.692L19.939 44.936C21.466 47.481 22.997 50.024 24.522 52.57L30.131 61.941C31.748 64.64 33.368 67.337 34.988 70.034L35.204 70.348C35.439 70.423 35.626 70.359 35.82 70.313C37.954 69.801 40.088 69.292 42.222 68.782C45.683 67.955 49.144 67.131 52.605 66.303L58.026 65.006C61.525 64.17 65.025 63.336 68.524 62.498C72.061 61.652 75.597 60.802 79.135 59.955C80.923 59.526 82.711 59.099 84.5 58.672C87.961 57.846 91.422 57.022 94.883 56.198L106.191 53.505L106.802 53.34L106.635 53.009L103.549 48.647L100.501 44.332L97.241 39.728L94.125 35.315L91.037 30.954L87.849 26.447C86.808 24.977 85.765 23.509 84.723 22.04L83.076 19.714C82.8224 19.3598 82.6245 18.969 82.489 18.555C82.163 17.544 82.535 16.871 83.125 16.374C83.507 16.051 83.947 15.814 84.423 15.674C85.0841 15.4708 85.755 15.3006 86.433 15.164C87.792 14.907 89.16 14.689 90.524 14.462L95.148 13.708C96.123 13.547 97.097 13.378 98.072 13.213C99.397 12.989 100.722 12.764 102.048 12.543C103.335 12.327 104.622 12.113 105.909 11.901L110.122 11.212L113.046 10.721C114.158 10.535 115.269 10.35 116.38 10.168C117.766 9.94199 119.151 9.71399 120.537 9.49699C121.363 9.36799 122.189 9.32299 123.009 9.55899C123.617 9.73913 124.191 10.0208 124.705 10.392L125.426 10.895C125.498 10.729 125.394 10.639 125.346 10.544C124.323 8.4575 122.871 6.61004 121.086 5.12199C119.43 3.73031 117.514 2.68014 115.45 2.03199C114.221 1.64299 112.958 1.82399 111.672 1.72699M55.689 127C55.627 127 55.572 126.55 55.502 126.431C54.002 123.871 52.486 121.123 51.004 118.554C49.138 115.315 47.2857 112.068 45.447 108.814C43.482 105.336 41.534 101.848 39.584 98.362C37.731 95.0478 35.8814 91.7318 34.035 88.414C32.92 86.409 31.812 84.4 30.698 82.394L30.402 81.935L29.86 82.042C28.788 82.319 27.718 82.598 26.648 82.88C25.158 83.272 23.669 83.671 22.178 84.06C18.831 84.931 15.484 85.797 12.137 86.665C8.733 87.549 5.186 88.435 1.781 89.315C1.574 89.368 2 89.386 1 89.421V110.566C1.412 111.222 1.373 110.913 1.399 111.129C1.478 111.755 1.606 112.386 1.716 113.006C2.128 115.316 3.055 117.431 4.395 119.357C6.36 122.183 8.977 124.203 12.183 125.439C13.328 125.879 14.523 126.189 15.745 126.339L16.986 126.667" fill="#FD4F31"/>
<path fill-rule="evenodd" clip-rule="evenodd" d="M4.976 77.742C8.915 76.805 12.855 75.869 16.794 74.934C18.524 74.524 20.255 74.119 21.985 73.707C22.85 73.501 23.717 73.305 24.575 73.073C25.339 72.867 25.433 72.614 25.04 71.925C24.472 70.929 23.894 69.939 23.319 68.946L18.255 60.226L13.193 51.505C11.476 48.547 9.757 45.589 8.039 42.632L3.627 35.042C2.991 33.948 2.219 32.851 1.58 31.758C1.461 31.559 2 31.321 1 31.215V78.611C1 78.579 1.453 78.552 1.606 78.515L4.976 77.742V77.742ZM126.224 111.62C124.68 112.169 123.135 112.722 121.592 113.275L111.047 117.056C109.094 117.757 107.145 118.466 105.191 119.164C101.209 120.585 97.225 122.001 93.242 123.419C90.934 124.241 88.625 125.257 86.318 126.083C85.686 126.31 85.063 127 84.437 127H110.927L111.497 126.673C112.171 126.644 112.834 126.444 113.496 126.323C116.215 125.826 118.65 124.65 120.807 122.931C122.464 121.61 123.812 119.995 124.868 118.153C125.954 116.257 126.599 114.206 126.909 112.052C126.936 111.866 126.994 111.655 126.838 111.463C126.618 111.446 126.424 111.549 126.224 111.62V111.62ZM123.949 76.049C122.781 74.451 121.61 72.856 120.444 71.257C118.835 69.05 117.229 66.841 115.622 64.633C114.969 63.737 114.307 62.848 113.67 61.942C113.478 61.669 113.259 61.596 112.96 61.677L112.789 61.726C109.831 62.445 106.872 63.162 103.913 63.879L98.611 65.166L88.239 67.685C84.82 68.516 81.401 69.348 77.981 70.177L67.319 72.759C63.822 73.608 60.327 74.46 56.831 75.31L46.689 77.772C44.902 78.206 43.115 78.638 41.33 79.074C41.067 79.138 40.784 79.154 40.504 79.366L40.743 79.821C43.9336 85.3358 47.1329 90.8454 50.341 96.35C52.215 99.563 54.094 102.774 55.971 105.986C57.05 107.831 58.122 109.678 59.21 111.518C60.4167 113.563 61.6344 115.601 62.863 117.633C63.232 118.24 63.651 118.82 64.073 119.392C64.3556 119.776 64.711 120.102 65.119 120.349C65.545 120.606 66.004 120.687 66.488 120.578C66.738 120.521 66.983 120.439 67.225 120.355L68.115 120.025C71.352 118.918 74.588 117.811 77.826 116.708C80.352 115.848 82.881 114.992 85.409 114.137C87.918 113.286 90.429 112.439 92.939 111.592L100.413 109.068C102.961 108.207 105.508 107.346 108.055 106.483C111.181 105.422 114.306 104.357 117.434 103.298C120.449 102.278 123.467 101.264 126.483 100.246C126.668 100.184 126.872 100.158 127.025 99.955L127.044 99.516C127.045 93.261 127.043 87.005 127.05 80.75C127.056 80.4345 126.954 80.1264 126.761 79.877C125.813 78.608 124.884 77.326 123.949 76.049V76.049ZM123.43 17.111C122.728 16.222 121.834 15.94 120.738 16.226C120.261 16.351 119.771 16.43 119.285 16.519C117.691 16.811 116.095 17.098 114.501 17.387C112.167 17.811 109.834 18.239 107.5 18.659C105.652 18.991 103.803 19.318 101.954 19.642L94.536 20.94C94.225 20.994 93.911 21.048 93.611 21.144C93.174 21.284 93.048 21.558 93.248 21.969C93.411 22.305 93.614 22.626 93.834 22.928C95.368 25.042 96.909 27.151 98.45 29.261C100.574 32.17 102.699 35.078 104.824 37.985C106.622 40.445 108.422 42.905 110.221 45.364C111.635 47.296 113.049 49.228 114.465 51.159L114.744 51.497L127.015 48.464L127.044 47.828C127.045 39.317 127.043 30.806 127.05 22.294C127.05 21.918 126.959 21.616 126.722 21.318C125.69 20.015 124.677 18.697 123.656 17.385L123.43 17.111V17.111ZM126.731 58.352C124.875 58.798 123.012 59.222 121.111 59.725C121.312 60.082 126.526 67.12 126.829 67.454L127.019 67.559L127.04 67.13L127.041 64.167C127.042 62.448 127.046 60.729 127.042 59.01C127.042 58.801 127.101 58.576 126.957 58.364L126.731 58.352V58.352Z" fill="#FD4F31"/>
</svg>
