<svg width="130" height="128" viewBox="0 0 130 128" fill="none" xmlns="http://www.w3.org/2000/svg">
<path d="M76.4 0.300003C75.5 0.300003 74.6 0.500003 73.8 0.800003C75.5 1.9 76.4 3.4 76.9 5.1C76.9 5.3 77 5.5 77 5.7C77 5.9 77.1 6.1 77.1 6.3C77.2 9.2 76.3 9.6 75.7 11.3C74.7 13.5 75 15.9 76.2 17.8C76.3 18 76.4 18.3 76.6 18.5C75.3 10.1 82.3 8.9 83.6 6.3C83.7 4 81.8 2.5 80.3 1.4C78.8 0.500003 77.6 0.300003 76.4 0.300003ZM86.9 2.1C86.8 2.9 86.9 2.7 86.8 3.1C86.8 3.4 86.8 3.7 86.7 4C86.6 4.3 86.6 4.5 86.5 4.8C86.4 5.1 86.3 5.3 86.2 5.6C86.1 5.8 86 6 85.9 6.3C85.8 6.4 85.7 6.6 85.6 6.7C85.5 6.8 85.5 6.9 85.4 7C85.2 7.2 85.1 7.5 84.9 7.7L84.3 8.3C84.1 8.5 83.9 8.7 83.7 8.8C83 9.3 82.2 9.7 81.5 10.2C81.3 10.4 81 10.5 80.8 10.7C80.6 10.9 80.4 11 80.2 11.2L79.6 11.8C79.4 12 79.2 12.2 79.1 12.5C78.9 12.7 78.8 13 78.6 13.2C78.5 13.5 78.4 13.7 78.2 14C78.1 14.3 78 14.5 77.9 14.8C77.8 15.1 77.7 15.4 77.7 15.6C77.7 15.7 77.7 15.9 77.6 16C77.6 16.1 77.6 16.3 77.5 16.4V17.8C77.5 18.1 77.5 18.3 77.6 18.6C77.6 18.9 77.7 19.1 77.8 19.4C77.9 19.7 78 19.9 78.1 20.2C78.2 20.4 78.3 20.5 78.3 20.7L70.7 17.8C69.4 17.4 68.2 17.1 66.9 16.8C66.2 16.6 65.5 16.5 64.8 16.3C62.8 15.9 60.8 15.6 58.8 15.4H58.6C56.6 15.2 54.7 15.1 52.7 15.1C51.2 15.1 49.8 15.2 48.4 15.3C46.4 15.4 44.4 15.7 42.4 16L40.9 16.3C39.9 16.5 38.9 16.7 37.9 17C37.4 17.1 36.9 17.3 36.4 17.4C35.9 17.6 35.4 17.8 35 18C34.6 18.2 34.3 18.3 33.9 18.5C33.8 18.5 33.8 18.5 33.7 18.6C33.4 18.8 33.1 18.9 32.8 19.1C32.7 19.1 32.6 19.2 32.6 19.2C32.2 19.4 31.9 19.6 31.6 19.7C31.4 19.8 31.1 19.9 30.9 20C30.8 20.1 30.7 20.1 30.6 20.2C30.3 20.4 30 20.5 29.7 20.7C29.4 20.9 29.1 21 28.9 21.2C28.7 21.4 28.4 21.5 28.2 21.7C28.2 21.7 28.1 21.7 28.1 21.8C27.9 21.9 27.7 22.1 27.5 22.3L27.4 22.4C27.2 22.5 27.1 22.7 26.9 22.8C26.8 22.8 26.8 22.9 26.7 22.9C26.5 23 26.4 23.2 26.2 23.3C26.2 23.4 26.1 23.4 26.1 23.4L25.5 24L25.4 24.1L24.8 24.7C24.8 24.7 24.8 24.8 24.7 24.8L24.2 25.3C24.1 25.4 24 25.4 24 25.5L23.4 26.1C23.4 26.2 23.3 26.2 23.3 26.3L22.5 27.1L22.4 27.2C21.9 27.8 21.3 28.3 20.7 28.8C20.1 29.3 19.5 29.8 18.8 30.3C18.1 30.8 17.5 31.2 16.8 31.6C16.1 32 15.4 32.3 14.7 32.6C14 32.9 13.3 33.2 12.6 33.4C11.2 33.7 9.79999 34.3 8.59999 34.4C8.59999 33.9 8.29999 34 7.99999 34C7.69999 34.1 7.39999 34.1 7.19999 34.2C6.89999 34.3 6.69999 34.4 6.39999 34.5C6.09999 34.6 5.89999 34.7 5.59999 34.9C5.39999 35.1 5.09999 35.2 4.89999 35.4C4.69999 35.6 4.39999 35.8 4.19999 36C3.99999 36.2 3.69999 36.4 3.49999 36.6C3.29999 36.8 3.09999 37 2.89999 37.3C2.69999 37.6 2.49999 37.8 2.39999 38.1C2.19999 38.3 2.09999 38.6 1.89999 38.9C1.79999 39.2 1.59999 39.5 1.49999 39.8L1.19999 40.7C1.09999 41 1.09999 41.2 0.999994 41.5V41.6C0.899994 41.9 0.899994 42.3 0.899994 42.5C0.999994 42.4 0.999994 42.6 0.999994 42.8V43.2C0.999994 43.4 1.09999 43.6 1.09999 43.8C1.19999 44 1.19999 44.2 1.29999 44.4C1.39999 44.6 1.49999 44.8 1.69999 45C1.79999 45.2 1.99999 45.4 2.09999 45.6C2.29999 45.8 2.49999 46 2.69999 46.1C2.89999 46.3 3.09999 46.5 3.29999 46.6C4.09999 47.3 4.29999 47.5 5.29999 48.1C5.49999 48.2 5.59999 48.3 5.79999 48.4H5.89999V48.6C5.89999 48.9 5.99999 49.1 6.09999 49.4C6.19999 49.7 6.29999 50 6.39999 50.2L6.69999 50.8C6.69999 50.9 6.79999 50.9 6.79999 51C6.89999 51.3 7.09999 51.5 7.19999 51.7C7.39999 51.9 7.49999 52.2 7.69999 52.4L8.29999 53L8.89999 53.6H8.99999C9.19999 53.8 9.39999 53.9 9.59999 54.1C9.79999 54.3 10.1 54.4 10.3 54.5C10.5 54.6 10.8 54.8 11.1 54.9C11.3 55 11.5 55.1 11.8 55.1C11.8 55.1 11.9 55.1 11.9 55.2C12 55.2 12.2 55.3 12.3 55.3C12.2 57.1 12.2 58.8 12.4 59.4C12.7 60.1 14.2 58 15.6 55.7C15.4 58 15.3 60.7 15.6 61.5C16 62.3 17.9 59.7 19.7 56.9C43.1 51.5 64.5 67.7 66.8 90.6C66.4 87 62 85 59.9 85.5C58.9 87.9 57.2 91.1 54.5 93C54.7 90.8 54.6 88.6 54.2 86.4C53.5 89.4 52.1 92.3 50.1 94.7C47 94.9 43.8 93.4 42.2 91.1C42.1 91 42 90.8 41.9 90.7C41.8 90.5 41.7 90.2 41.6 90C41.5 89.8 41.4 89.5 41.4 89.3V88.6V88.1C41.4 87.9 41.5 87.6 41.6 87.4C41.7 87.2 41.7 86.9 41.8 86.7C41.9 86.5 42 86.2 42.2 86C42.8 84.4 42.8 83.1 41.7 82.4L41.1 82.1C41 82.1 40.8 82 40.7 82C40.6 82 40.5 81.9 40.4 81.9C40.2 81.8 39.9 81.8 39.7 81.7C39.5 81.6 39.2 81.6 39 81.6C38.8 81.6 38.5 81.5 38.3 81.5H37.8C37.5 81.5 37.3 81.5 37.1 81.6C36.9 81.6 36.6 81.7 36.4 81.7C36.2 81.8 35.9 81.8 35.7 81.9C35.5 82 35.3 82.1 35 82.2L34.4 82.5C26.7 87.5 31.3 99.3 36.5 102.7C34.5 103.1 32.5 103.5 31.9 103.9L31.8 104C33.2 104.9 34.7 105.6 36.3 106.2C38.4 106.9 40.7 107.5 41.7 107.8C44.4 108.4 47.2 108.6 50 108.4C64.6 107.4 76.6 96.2 78.8 81.6C78.9 81.9 78.9 82.2 79 82.5C79.1 83.1 79.2 83.7 79.3 84.4C79.4 84.7 79.4 85 79.4 85.3V85.4C79.4 85.7 79.5 86 79.5 86.3C79.5 86.7 79.6 87 79.6 87.4V91.6C79.6 91.9 79.5 92.1 79.5 92.4V92.7C79.5 93 79.4 93.3 79.4 93.7C79.3 94 79.3 94.3 79.2 94.6V94.7C79.1 95 79.1 95.3 79 95.6V95.7C78.9 96 78.9 96.3 78.8 96.6V96.7L78.5 97.6V97.7C78.4 98 78.3 98.4 78.2 98.7C78.1 99 78 99.3 77.8 99.7C77.7 100 77.6 100.4 77.4 100.7C77.3 101 77.1 101.3 77 101.7C76.9 102 76.7 102.3 76.6 102.6C76.6 102.7 76.5 102.8 76.5 102.8C76.5 102.8 76.5 102.9 76.4 102.9C74.3 107.2 71.1 111 67.1 114C66.8 114.2 66.6 114.4 66.3 114.6C66.2 114.7 66.1 114.7 66.1 114.8C65.9 115 65.6 115.1 65.4 115.3L65.5 115.5C66 115.4 66.4 115.4 66.9 115.3C67.8 115.2 68.6 115 69.5 114.8C69.7 114.8 70 114.7 70.2 114.6C70.4 114.6 70.5 114.5 70.7 114.5C70.9 114.5 71.2 114.4 71.4 114.4C71.6 114.3 71.8 114.3 72 114.2C75.3 113.4 78.5 112.3 81.6 111C76.3 118.2 69.3 124 61.1 127.8C64.9 127.5 68.7 126.9 72.4 125.8C85.7 121.9 96.9 112.9 103.6 100.8C102.2 108.4 99.2 115.7 94.7 122.1C97.9 120 100.8 117.5 103.5 114.8C110.9 107.1 115.8 97.2 117.4 86.7C118.5 91.9 118.9 97.3 118.4 102.6C142.3 69.3 120.4 34.8 111.2 25.7C111.2 25.6 111.1 25.6 111.1 25.5C111.1 25.9 111.1 26.3 111 26.7C110.9 27.5 110.8 28.2 110.7 28.9C110.5 29.6 110.3 30.4 110.1 31.1C109.9 31.8 109.6 32.5 109.3 33.2C109 33.9 108.7 34.6 108.3 35.2C107.9 35.8 107.5 36.5 107.1 37.1C106.7 37.7 106.2 38.3 105.7 38.9C105.2 39.5 104.7 40 104.1 40.6C103.8 40.9 103.5 41.2 103.1 41.4C102.8 41.6 102.6 41.8 102.3 42.1C101.7 42.6 101.1 43 100.4 43.4C99.8 43.8 99.1 44.2 98.4 44.5L96.3 45.4C95.6 45.7 94.9 45.9 94.2 46.1C93.5 46.3 92.7 46.5 92 46.6C91.2 46.7 90.5 46.8 89.8 46.9C89.3 46.9 88.7 47 88.2 47C87.4 47 86.7 46.9 86 46.9C85.2 46.8 84.5 46.7 83.8 46.6C83 46.5 82.3 46.3 81.6 46C82.3 45.9 83.1 45.9 83.8 45.7C84.6 45.6 85.3 45.4 86 45.2C86.7 45 87.5 44.8 88.1 44.5L90.2 43.6C90.9 43.3 91.5 42.9 92.2 42.5C92.8 42.1 93.5 41.6 94.1 41.2C94.7 40.7 95.3 40.2 95.8 39.7C96.4 39.2 96.9 38.6 97.4 38.1C97.9 37.5 98.4 36.9 98.8 36.3C98.9 36.2 98.9 36.1 99 36C99.3 35.5 99.7 34.9 100 34.4C100.4 33.7 100.7 33.1 101 32.4C101.3 31.7 101.6 31 101.8 30.3L102.4 28.2C102.5 27.4 102.7 26.7 102.7 26C102.8 25.2 102.8 24.5 102.8 23.8C102.8 23.3 102.8 22.7 102.7 22.2C102.6 21.4 102.5 20.7 102.4 20C102.3 19.2 102.1 18.5 101.9 17.8C101.7 17.1 101.4 16.4 101.2 15.7C100.9 15 100.6 14.3 100.3 13.7C99.9 13 99.6 12.4 99.2 11.7C98.8 11.1 98.3 10.5 97.9 9.9C97.4 9.3 96.9 8.8 96.4 8.2C96.1 7.9 95.8 7.6 95.5 7.4C94 6.2 92.5 5.2 90.9 4.2C90.7 4.1 90.5 4 90.2 3.9C88.9 2.8 87.9 2.5 86.9 2.1V2.1Z" fill="#DF234F"/>
</svg>
